<svg id="Layer_1" data-name="Layer 1" xmlns="http://www.w3.org/2000/svg" viewBox="0 0 100 100"><defs><style>.cls-1{fill:#fff;}.cls-2{fill:#eb70ce;}</style></defs><title>cog</title><polygon class="cls-1" points="100 75 100 25 50 0 0 25 0 75 50 100 100 75"/><path class="cls-2" d="M48.5,22,45,30.31a10,10,0,0,0-2,.91l-8.31-3.49-5,5,3.49,8.31c-.35.7-.63,1.26-.91,2L24,46.51v7L32.3,57c.28.7.56,1.26.91,2l-3.49,8.31,5,5,8.31-3.49c.63.28,1.26.63,2,.91L48.5,78h7L59,69.7c.63-.28,1.33-.56,2-.91l8.31,3.49,5-5-3.49-8.31c.28-.63.63-1.33.91-2L80,53.5v-7L71.69,43a12.25,12.25,0,0,0-.91-2l3.49-8.31-5-5-8.31,3.49c-.63-.28-1.33-.63-2-.91L55.49,22ZM52,39.46A10.48,10.48,0,1,1,41.52,49.94,10.46,10.46,0,0,1,52,39.46Z"/></svg>