<?xml version="1.0" standalone="no"?>
<!DOCTYPE svg PUBLIC "-//W3C//DTD SVG 20010904//EN"
 "http://www.w3.org/TR/2001/REC-SVG-20010904/DTD/svg10.dtd">
<svg version="1.0" xmlns="http://www.w3.org/2000/svg"
 width="16.000000pt" height="16.000000pt" viewBox="0 0 16.000000 16.000000"
 preserveAspectRatio="xMidYMid meet">
<metadata>
Created by potrace 1.11, written by Peter Selinger 2001-2013
</metadata>
<g transform="translate(0.000000,16.000000) scale(0.003025,-0.003025)"
fill="#000000" stroke="none">
<path d="M2510 5156 c-101 -59 -536 -309 -690 -399 -19 -11 -62 -35 -95 -54
-33 -19 -76 -43 -95 -55 -19 -11 -215 -124 -435 -250 -220 -127 -420 -243
-445 -258 -25 -15 -90 -53 -145 -84 -98 -56 -121 -69 -158 -92 -16 -11 -1 -23
122 -96 l140 -84 -124 -72 c-68 -40 -131 -72 -140 -72 -9 0 -41 16 -71 35 -30
19 -57 35 -60 35 -3 0 -18 8 -32 19 -58 40 -122 71 -123 58 0 -6 -2 -529 -2
-1160 l-2 -1148 25 -13 c14 -7 129 -72 255 -146 127 -73 372 -215 545 -315
292 -169 454 -262 880 -507 91 -53 295 -170 453 -262 159 -92 299 -172 311
-178 21 -9 47 4 217 102 107 62 214 124 239 138 25 14 59 34 75 44 17 10 37
21 45 25 8 3 31 16 50 28 19 12 55 33 80 47 25 14 144 83 265 153 121 70 297
172 390 226 678 390 880 508 881 515 2 5 -65 42 -148 83 -130 63 -149 75 -132
84 10 6 72 41 136 78 l117 67 53 -32 c29 -17 85 -49 123 -70 39 -22 80 -46 93
-54 l22 -14 0 1159 0 1160 -122 70 c-111 63 -301 173 -1148 663 -140 81 -272
157 -292 169 -50 28 -24 13 -503 291 -253 147 -256 148 -345 194 l-85 44 -125
-72z"/>
</g>
</svg>
