<svg id="Layer_1" data-name="Layer 1" xmlns="http://www.w3.org/2000/svg" viewBox="0 0 100 100"><defs><style>.cls-1{fill:#fff;}.cls-2{fill:#eb70ce;}</style></defs><title>eyedropper</title><polygon class="cls-1" points="100 75 100 25 50 0 0 25 0 75 50 100 100 75"/><path class="cls-2" d="M46.45,24.11a3.24,3.24,0,0,0-1.23,5.44l4.08,4.08L26,57.35l-1,1V76H42.43l1-1L67.18,51.25l4.08,4.28a3.24,3.24,0,1,0,4.67-4.47L69.84,45l4.28-4.28a9.74,9.74,0,0,0,0-13.8,10,10,0,0,0-13.8,0L56,31.17l-6.09-6.09a3.24,3.24,0,0,0-3-1h-.39ZM54,38.3l8.49,8.49L42,67.26l-8.29-8.49Z"/></svg>