<svg id="Layer_1" data-name="Layer 1" xmlns="http://www.w3.org/2000/svg" viewBox="0 0 100 100"><defs><style>.cls-1{fill:#fff;}.cls-2{fill:#eb70ce;}</style></defs><title>wrench</title><polygon class="cls-1" points="100 75 100 25 50 0 0 25 0 75 50 100 100 75"/><path class="cls-2" d="M58,25A14.89,14.89,0,0,0,43.14,39.88a15.19,15.19,0,0,0,1.13,5.42L26.95,62.45a6.15,6.15,0,0,0,0,8.57,5.92,5.92,0,0,0,4.29,1.67A6.18,6.18,0,0,0,35.52,71L52.66,53.69a14.67,14.67,0,0,0,5.42,1.13A14.89,14.89,0,0,0,73,39.94a14.43,14.43,0,0,0-.18-2.8L67,42.92H55.11V31l5.77-5.77a14.43,14.43,0,0,0-2.8-.18ZM31.23,63.7a3,3,0,1,1-3,3A2.95,2.95,0,0,1,31.23,63.7Z"/></svg>